# xmcd
#
# Track frame offsets:
#  150
#  20875
#  44512
#  66175
#  85775
#  107975
#  125025
#  141650
#  159225
#  174225
#  198962
#  220562
#  243050
#  266550
#  281800
#
# Disc length: 4045 seconds
#
# Revision: 0
# Processed by: cddbd v1.4PL0 Copyright (c) Steve Scherf et al.
# Submitted via: AltoMP3_Maker 3.0
#
DISCID=dd0fcb0f
DTITLE=张信哲等 - 千喜情新王新后
DYEAR=1900
DGENRE=
TTITLE0=爱就一个字
TTITLE1=真爱无敌
TTITLE2=没那种命
TTITLE3=日出
TTITLE4=雨一直下
TTITLE5=愿赌服输
TTITLE6=情人
TTITLE7=新鲜
TTITLE8=HAPPY2000
TTITLE9=想你的365天
TTITLE10=木鱼与金鱼
TTITLE11=呼吸
TTITLE12=一个人去流浪
TTITLE13=我的SUOER  LIFE
TTITLE14=有些女人不能碰
EXTD=
EXTT0=
EXTT1=
EXTT2=
EXTT3=
EXTT4=
EXTT5=
EXTT6=
EXTT7=
EXTT8=
EXTT9=
EXTT10=
EXTT11=
EXTT12=
EXTT13=
EXTT14=
PLAYORDER=
